<svg width="283" height="76" viewBox="0 0 283 76" fill="none" xmlns="http://www.w3.org/2000/svg">
<path d="M50.2259 19.6321C50.5099 15.0156 49.2552 11.3106 46.4616 8.51704C43.6918 5.69981 39.6908 4.29119 34.4588 4.29119C30.9077 4.29119 27.6525 4.94224 24.6932 6.24432C21.7339 7.5464 19.2718 9.33381 17.3068 11.6065C15.3655 13.8556 14.1463 16.4242 13.6491 19.3125C13.3414 21.1828 13.4242 22.8755 13.8977 24.3906C14.3949 25.8821 15.2116 27.2079 16.348 28.3679C17.4844 29.5279 18.893 30.5578 20.5739 31.4574C22.2547 32.3333 24.1368 33.1027 26.2202 33.7656L33.7841 36.1094C36.3646 36.938 38.7202 37.8968 40.8509 38.9858C43.0052 40.0748 44.8163 41.3769 46.2841 42.892C47.7519 44.3835 48.7936 46.1354 49.4091 48.1477C50.0483 50.16 50.143 52.4801 49.6932 55.108C49.054 59.0142 47.5152 62.4825 45.0767 65.5128C42.6383 68.5431 39.4777 70.9105 35.5952 72.6151C31.7126 74.3196 27.2382 75.1719 22.1719 75.1719C17.508 75.1719 13.5545 74.3788 10.3111 72.7926C7.09138 71.2064 4.71212 69.0047 3.1733 66.1875C1.63447 63.3466 1.04261 60.0795 1.39773 56.3864H5.94318C5.68277 59.393 6.21544 61.9972 7.54119 64.1989C8.86695 66.3769 10.8438 68.0578 13.4716 69.2415C16.1231 70.4252 19.2599 71.017 22.8821 71.017C26.812 71.017 30.3632 70.3423 33.5355 68.9929C36.7315 67.6435 39.3594 65.7732 41.419 63.3821C43.5024 60.991 44.8045 58.2211 45.3253 55.0724C45.7514 52.5156 45.5147 50.3139 44.6151 48.4673C43.7154 46.6207 42.1884 45.0346 40.0341 43.7088C37.9034 42.3594 35.1927 41.1757 31.902 40.1577L23.7344 37.6009C18.3366 35.8726 14.3949 33.5289 11.9091 30.5696C9.4233 27.5866 8.53551 23.8816 9.24574 19.4545C9.90862 15.643 11.4593 12.2931 13.8977 9.40483C16.3362 6.51657 19.402 4.25568 23.0952 2.62216C26.7884 0.988635 30.813 0.171875 35.169 0.171875C39.5014 0.171875 43.1828 1.01231 46.2131 2.69318C49.267 4.35038 51.5161 6.64678 52.9602 9.58238C54.428 12.518 54.9607 15.8679 54.5582 19.6321H50.2259ZM127.889 37.8139C126.658 45.295 124.291 51.8291 120.787 57.4162C117.283 62.9796 112.974 67.3002 107.861 70.3778C102.771 73.4555 97.2192 74.9943 91.206 74.9943C85.0507 74.9943 79.9015 73.4318 75.7585 70.3068C71.6392 67.1818 68.7391 62.8021 67.0582 57.1676C65.401 51.5331 65.1761 44.9635 66.3835 37.4588C67.6619 29.9777 70.053 23.4555 73.5568 17.892C77.0843 12.3049 81.4048 7.97254 86.5185 4.89488C91.6321 1.81723 97.2074 0.278406 103.244 0.278406C109.281 0.278406 114.371 1.84091 118.514 4.96591C122.657 8.06723 125.569 12.4351 127.25 18.0696C128.955 23.6804 129.168 30.2618 127.889 37.8139ZM123.592 37.4588C124.729 30.688 124.598 24.8404 123.202 19.9162C121.829 14.9919 119.414 11.2041 115.957 8.55256C112.525 5.87736 108.263 4.53977 103.173 4.53977C97.965 4.53977 93.1117 5.90104 88.6136 8.62358C84.1155 11.3461 80.2921 15.205 77.1435 20.2003C74.0185 25.1719 71.8759 31.0431 70.7159 37.8139C69.5795 44.5848 69.6979 50.4323 71.071 55.3565C72.4441 60.2571 74.8589 64.045 78.3153 66.7202C81.7718 69.3954 86.0687 70.733 91.206 70.733C96.4616 70.733 101.339 69.3717 105.837 66.6491C110.358 63.9029 114.182 60.044 117.307 55.0724C120.432 50.0772 122.527 44.206 123.592 37.4588ZM203.085 37.8139C201.853 45.295 199.486 51.8291 195.982 57.4162C192.478 62.9796 188.17 67.3002 183.056 70.3778C177.966 73.4555 172.415 74.9943 166.401 74.9943C160.246 74.9943 155.097 73.4318 150.954 70.3068C146.835 67.1818 143.934 62.8021 142.254 57.1676C140.596 51.5331 140.371 44.9635 141.579 37.4588C142.857 29.9777 145.248 23.4555 148.752 17.892C152.28 12.3049 156.6 7.97254 161.714 4.89488C166.827 1.81723 172.403 0.278406 178.44 0.278406C184.477 0.278406 189.567 1.84091 193.71 4.96591C197.853 8.06723 200.764 12.4351 202.445 18.0696C204.15 23.6804 204.363 30.2618 203.085 37.8139ZM198.788 37.4588C199.924 30.688 199.794 24.8404 198.397 19.9162C197.024 14.9919 194.609 11.2041 191.153 8.55256C187.72 5.87736 183.459 4.53977 178.369 4.53977C173.16 4.53977 168.307 5.90104 163.809 8.62358C159.311 11.3461 155.487 15.205 152.339 20.2003C149.214 25.1719 147.071 31.0431 145.911 37.8139C144.775 44.5848 144.893 50.4323 146.266 55.3565C147.639 60.2571 150.054 64.045 153.511 66.7202C156.967 69.3954 161.264 70.733 166.401 70.733C171.657 70.733 176.534 69.3717 181.032 66.6491C185.554 63.9029 189.377 60.044 192.502 55.0724C195.627 50.0772 197.722 44.206 198.788 37.4588ZM282.115 1.27273L270.041 74H265.709L230.091 9.33381H229.665L218.905 74H214.466L226.54 1.27273H230.908L266.561 66.0099H266.987L277.712 1.27273H282.115Z" fill="#FF0101"/>
</svg>
