<svg fill="#ca8b04" xmlns="http://www.w3.org/2000/svg"  viewBox="0 0 100 100" width="100px" height="100px"><path d="M 50.847656 15.90625 C 50.52206 15.889564 50.194944 15.904386 49.873047 15.949219 C 48.585457 16.128552 47.366229 16.794763 46.525391 17.904297 C 44.84257 20.124478 45.291889 23.317734 47.519531 24.992188 L 54.314453 30.099609 L 23.78125 30.099609 C 20.99288 30.099609 18.707031 32.373533 18.707031 35.158203 C 18.707031 37.942873 20.99288 40.216797 23.78125 40.216797 L 37.779297 40.216797 L 11.109375 61.988281 C 8.9494698 63.74995 8.6305949 66.958565 10.400391 69.109375 C 11.400443 70.32532 12.861054 70.960938 14.326172 70.960938 C 15.455927 70.960938 16.600991 70.582098 17.541016 69.814453 L 32.990234 57.205078 C 33.103759 71.37597 46.105478 82.728516 61.984375 82.728516 C 77.932978 82.728516 91 71.280355 91 57.023438 C 91 49.09187 86.91718 42.021124 80.587891 37.324219 C 80.548921 37.279539 80.574207 37.313649 80.554688 37.292969 C 80.488438 37.222799 80.462338 37.201179 80.443359 37.185547 C 80.418789 37.165307 80.394021 37.145414 80.363281 37.121094 C 80.301811 37.072444 80.2194 37.008231 80.115234 36.927734 C 79.906902 36.76674 79.60996 36.540822 79.236328 36.255859 C 78.489064 35.685935 77.435075 34.884988 76.173828 33.929688 C 73.651335 32.019084 70.306151 29.491063 66.966797 26.970703 C 60.288089 21.929983 53.630859 16.916016 53.630859 16.916016 C 52.795141 16.286785 51.824446 15.956308 50.847656 15.90625 z M 50.736328 17.892578 C 51.326764 17.924399 51.915703 18.128155 52.427734 18.513672 C 52.427734 18.513672 59.083926 23.52833 65.761719 28.568359 C 69.100615 31.088374 72.444149 33.614197 74.964844 35.523438 C 76.225191 36.478057 77.279646 37.278429 78.023438 37.845703 C 78.395332 38.12934 78.690739 38.355742 78.892578 38.511719 C 78.993498 38.589709 79.071032 38.649831 79.121094 38.689453 C 79.141914 38.705933 79.155372 38.715596 79.164062 38.722656 C 79.165863 38.724056 79.170775 38.729569 79.171875 38.730469 A 1.0001 1.0001 0 0 0 79.246094 38.789062 C 85.231071 43.157558 89 49.704602 89 57.023438 C 89 70.054519 76.979772 80.728516 61.984375 80.728516 C 46.988978 80.728516 34.96875 70.055611 34.96875 57.023438 C 34.96875 56.392243 35.00534 55.759545 35.0625 55.123047 A 1.0001 1.0001 0 0 0 33.435547 54.259766 L 16.275391 68.265625 C 15.699415 68.73598 15.014416 68.960938 14.326172 68.960938 C 13.43329 68.960938 12.55726 68.581946 11.945312 67.837891 C 10.863109 66.522701 11.052905 64.615441 12.375 63.537109 L 41.220703 39.992188 A 1.0001 1.0001 0 0 0 40.587891 38.216797 L 23.78125 38.216797 C 22.06962 38.216797 20.707031 36.857533 20.707031 35.158203 C 20.707031 33.458873 22.06962 32.099609 23.78125 32.099609 L 57.308594 32.099609 A 1.0001 1.0001 0 0 0 57.908203 30.298828 L 48.720703 23.392578 C 47.356346 22.367031 47.089961 20.469147 48.119141 19.111328 C 48.633302 18.432862 49.370526 18.026386 50.148438 17.917969 C 50.342915 17.890864 50.539516 17.881971 50.736328 17.892578 z M 61.525391 38.824219 C 52.639153 38.824219 45.388672 45.489093 45.388672 53.748047 C 45.388672 62.007 52.639153 68.671875 61.525391 68.671875 C 70.411628 68.671875 77.664062 62.007 77.664062 53.748047 C 77.664062 46.975794 72.784303 41.270154 66.132812 39.441406 A 0.50005 0.50005 0 1 0 65.867188 40.404297 C 72.127696 42.125549 76.664062 47.4563 76.664062 53.748047 C 76.664062 61.421093 69.913153 67.671875 61.525391 67.671875 C 53.137628 67.671875 46.388672 61.421093 46.388672 53.748047 C 46.388672 46.075 53.137628 39.824219 61.525391 39.824219 A 0.50005 0.50005 0 1 0 61.525391 38.824219 z M 61.525391 45.5 C 56.598311 45.5 52.552734 49.173495 52.552734 53.748047 C 52.552734 58.322599 56.598311 61.996094 61.525391 61.996094 C 66.45247 61.996094 70.5 58.322599 70.5 53.748047 C 70.5 52.128316 69.98871 50.613405 69.113281 49.341797 A 0.50005 0.50005 0 1 0 68.291016 49.908203 C 69.059587 51.024595 69.5 52.337777 69.5 53.748047 C 69.5 57.731495 65.958311 60.996094 61.525391 60.996094 C 57.09247 60.996094 53.552734 57.731495 53.552734 53.748047 C 53.552734 49.764599 57.09247 46.5 61.525391 46.5 C 62.933933 46.5 64.253023 46.830379 65.398438 47.410156 A 0.50005 0.50005 0 1 0 65.851562 46.519531 C 64.566976 45.869308 63.090848 45.5 61.525391 45.5 z M 37.492188 56.826172 A 0.50005 0.50005 0 0 0 37 57.333984 C 37 61.074534 38.131344 64.594373 40.109375 67.646484 A 0.50005 0.50005 0 1 0 40.947266 67.103516 C 39.065296 64.199627 38 60.873435 38 57.333984 A 0.50005 0.50005 0 0 0 37.492188 56.826172 z M 43.132812 70.119141 A 0.50005 0.50005 0 0 0 42.773438 70.974609 C 43.843975 72.071732 45.039629 73.074785 46.341797 73.96875 A 0.50005 0.50005 0 1 0 46.908203 73.144531 C 45.658371 72.286496 44.513696 71.324268 43.490234 70.275391 A 0.50005 0.50005 0 0 0 43.132812 70.119141 z M 49.974609 75 A 0.50005 0.50005 0 0 0 49.783203 75.953125 C 53.398569 77.683853 57.565994 78.667969 62 78.667969 A 0.50005 0.50005 0 1 0 62 77.667969 C 57.714006 77.667969 53.695431 76.716053 50.216797 75.050781 A 0.50005 0.50005 0 0 0 49.974609 75 z"/></svg>