<svg xmlns="http://www.w3.org/2000/svg" xmlns:xlink="http://www.w3.org/1999/xlink" viewBox="0,0,256,256" width="90px" height="90px"><g fill="#ca8b04" fill-rule="nonzero" stroke="none" stroke-width="1" stroke-linecap="butt" stroke-linejoin="miter" stroke-miterlimit="10" stroke-dasharray="" stroke-dashoffset="0" font-family="none" font-weight="none" font-size="none" text-anchor="none" style="mix-blend-mode: normal"><g transform="scale(3.2,3.2)"><path d="M40,7c-18.21356,0 -33,14.78645 -33,33c0,18.21355 14.78644,33 33,33c18.21356,0 33,-14.78645 33,-33c0,-18.21355 -14.78644,-33 -33,-33zM40,9c17.13268,0 31,13.86733 31,31c0,17.13267 -13.86732,31 -31,31c-17.13268,0 -31,-13.86733 -31,-31c0,-17.13267 13.86732,-31 31,-31zM40,14c-11.63616,0 -21.93748,7.81975 -25.05078,19.01953l-0.39062,1.40625c-0.10854,0.348 -0.01913,0.7275 0.23335,0.99045c0.25248,0.26295 0.62803,0.36769 0.98016,0.27337c0.35212,-0.09432 0.62504,-0.37276 0.71227,-0.72671l0.39258,-1.40625c2.8727,-10.33421 12.38321,-17.55664 23.12305,-17.55664c7.36948,0 14.29093,3.49627 18.82617,9.27734l-2.36133,1.69531c-3.97259,-5.00835 -10.04894,-7.97266 -16.46484,-7.97266c-8.82713,0 -16.69201,5.56909 -19.70312,13.74023c-0.1177,0.19511 -0.16525,0.42457 -0.13477,0.65039c0.03139,0.29439 0.1916,0.55973 0.4375,0.72461l25.31836,25.32031c0.13091,0.17635 0.31623,0.30469 0.52734,0.36523c0.0052,0.00134 0.01041,0.00265 0.01563,0.00391c0.02128,0.00658 0.04278,0.01244 0.06445,0.01758c0.02843,0.0058 0.05711,0.01036 0.08594,0.01367c0.26963,0.03669 0.54256,-0.03807 0.75586,-0.20703c6.37703,-2.40627 11.25653,-7.81876 12.96484,-14.37695c0.07793,-0.29949 0.01283,-0.61818 -0.17631,-0.86312c-0.18914,-0.24493 -0.48102,-0.38851 -0.79048,-0.38884h-9.36523v-3h14.03711l-0.18359,1.66406c-1.06429,9.62655 -8.07237,17.86327 -17.41016,20.46094l-1.40625,0.39063c-0.34443,0.09553 -0.61172,0.36758 -0.70115,0.71365c-0.08943,0.34607 0.01259,0.71355 0.26761,0.964c0.25503,0.25044 0.6243,0.34578 0.96869,0.25009l1.40625,-0.39258c10.13822,-2.82034 17.70757,-11.71256 18.86328,-22.16601c0,-0.00065 0,-0.0013 0,-0.00195l0.28516,-2.60156c0.09957,-0.34068 0.01112,-0.70861 -0.23242,-0.9668c-0.19083,-0.21035 -0.46209,-0.32965 -0.74609,-0.32812c-0.04975,0.00086 -0.09937,0.00543 -0.14844,0.01367h-16c-0.55226,0.00006 -0.99994,0.44774 -1,1v5c0.00006,0.55226 0.44774,0.99994 1,1h8.89844c-1.78228,5.24472 -5.77105,9.56365 -10.96484,11.62305l-24.59766,-24.59961c2.83155,-7.16137 9.82739,-12.02344 17.66406,-12.02344c6.10316,0 11.88247,2.96774 15.44922,7.93555c0.01425,0.02008 0.02923,0.03962 0.04492,0.05859c0.00888,0.01126 0.01799,0.02233 0.02734,0.0332c0.00579,0.00593 0.01165,0.01179 0.01758,0.01758c0.18456,0.19715 0.44101,0.31128 0.71102,0.31643c0.27001,0.00515 0.53062,-0.09912 0.72257,-0.28908l3.93164,-2.82422c0.44775,-0.32226 0.55,-0.94622 0.22852,-1.39453c-4.87932,-6.79735 -12.77606,-10.85352 -21.13281,-10.85352zM18.22461,36.39844c-0.255,0 -0.51008,0.09602 -0.70508,0.29102c-0.39,0.39 -0.39,1.02992 0,1.41992c0.2,0.19 0.45094,0.29102 0.71094,0.29102c0.25,0 0.50922,-0.10102 0.69922,-0.29102c0.39,-0.39 0.39,-1.02992 0,-1.41992c-0.195,-0.195 -0.45008,-0.29102 -0.70508,-0.29102zM20.93555,39.10742c-0.255,0 -0.51008,0.09797 -0.70508,0.29297c-0.39,0.39 -0.39,1.02992 0,1.41992c0.19,0.19 0.44898,0.28906 0.70898,0.28906c0.25,0 0.51117,-0.09906 0.70117,-0.28906c0.39,-0.39 0.39,-1.02992 0,-1.41992c-0.195,-0.195 -0.45008,-0.29297 -0.70508,-0.29297zM14.98242,39.33594c-0.11939,0.00378 -0.23713,0.02892 -0.34766,0.07422c-0.00982,0.0031 -0.01958,0.00636 -0.0293,0.00977c-0.00392,0.00193 -0.00783,0.00388 -0.01172,0.00586c-0.45266,0.20159 -0.68945,0.70425 -0.55664,1.18164c0.31682,13.94491 11.61837,25.1733 25.59375,25.36719c0.3815,0.10155 0.78704,-0.03082 1.03516,-0.33789c0.03922,-0.04811 0.07387,-0.09976 0.10352,-0.1543c0.00263,-0.00389 0.00524,-0.00779 0.00781,-0.01172c0.00198,-0.00389 0.00393,-0.0078 0.00586,-0.01172c0.01354,-0.02613 0.02592,-0.05285 0.03711,-0.08008c0.00133,-0.0039 0.00263,-0.0078 0.00391,-0.01172c0.01196,-0.03072 0.02238,-0.062 0.03125,-0.09375c0.11184,-0.39574 -0.02996,-0.81959 -0.35742,-1.06836l-24.69531,-24.47656c-0.19469,-0.2548 -0.49975,-0.4008 -0.82031,-0.39258zM23.64453,41.81836c-0.255,0 -0.51008,0.09602 -0.70508,0.29102c-0.39,0.39 -0.39,1.02016 0,1.41016c0.19,0.2 0.45117,0.30078 0.70117,0.30078c0.26,0 0.51898,-0.10078 0.70898,-0.30078c0.39,-0.39 0.39,-1.02016 0,-1.41016c-0.195,-0.195 -0.45008,-0.29102 -0.70508,-0.29102zM16.31641,43.05273l20.84766,20.66602c-10.89987,-1.2927 -19.46075,-9.79656 -20.84766,-20.66602zM26.34961,44.52734c-0.2575,0 -0.51398,0.09797 -0.70898,0.29297c-0.39,0.39 -0.39,1.02016 0,1.41016c0.2,0.2 0.45898,0.29883 0.70898,0.29883c0.26,0 0.51094,-0.09883 0.71094,-0.29883c0.39,-0.39 0.39,-1.02016 0,-1.41016c-0.195,-0.195 -0.45344,-0.29297 -0.71094,-0.29297zM29.06055,47.23828c-0.2575,0 -0.51594,0.09602 -0.71094,0.29102c-0.39,0.39 -0.39,1.02016 0,1.41016c0.2,0.19 0.45094,0.29102 0.71094,0.29102c0.26,0 0.50898,-0.10102 0.70898,-0.29102c0.39,-0.39 0.39,-1.02016 0,-1.41016c-0.195,-0.195 -0.45148,-0.29102 -0.70898,-0.29102zM31.76563,49.9375c-0.255,0 -0.51008,0.09797 -0.70508,0.29297c-0.39,0.39 -0.39,1.02992 0,1.41992c0.19,0.19 0.44898,0.28906 0.70898,0.28906c0.25,0 0.51117,-0.09906 0.70117,-0.28906c0.39,-0.39 0.39,-1.02992 0,-1.41992c-0.195,-0.195 -0.45008,-0.29297 -0.70508,-0.29297zM34.47461,52.64844c-0.255,0 -0.51008,0.09602 -0.70508,0.29102c-0.39,0.39 -0.39,1.01992 0,1.41992c0.19,0.19 0.45117,0.29102 0.70117,0.29102c0.26,0 0.51899,-0.10102 0.70898,-0.29102c0.39,-0.4 0.39,-1.02992 0,-1.41992c-0.195,-0.195 -0.45008,-0.29102 -0.70508,-0.29102zM37.18359,55.35742c-0.25625,0 -0.51289,0.09797 -0.71289,0.29297c-0.39,0.39 -0.39,1.02016 0,1.41016c0.2,0.2 0.45898,0.28906 0.70898,0.28906c0.26,0 0.51094,-0.08906 0.71094,-0.28906c0.39,-0.39 0.39,-1.02016 0,-1.41016c-0.195,-0.195 -0.45078,-0.29297 -0.70703,-0.29297zM39.89063,58.06836c-0.2575,0 -0.51594,0.09602 -0.71094,0.29102c-0.39,0.39 -0.39,1.02016 0,1.41016c0.2,0.2 0.45094,0.29102 0.71094,0.29102c0.26,0 0.50898,-0.09102 0.70898,-0.29102c0.39,-0.39 0.39,-1.02016 0,-1.41016c-0.195,-0.195 -0.45148,-0.29102 -0.70898,-0.29102zM42.5957,60.76758c-0.25625,0 -0.51008,0.09797 -0.70508,0.29297c-0.39,0.39 -0.39,1.02992 0,1.41992c0.2,0.19 0.44898,0.28906 0.70898,0.28906c0.25,0 0.51094,-0.09906 0.71094,-0.28906c0.39,-0.39 0.39,-1.02992 0,-1.41992c-0.2,-0.195 -0.45859,-0.29297 -0.71484,-0.29297z"></path></g></g></svg>