<svg width="403" height="75" viewBox="0 0 403 75" fill="none" xmlns="http://www.w3.org/2000/svg">
<path d="M62.3295 24H53.5227C53.0019 21.4669 52.0904 19.2415 50.7884 17.3239C49.5099 15.4062 47.9474 13.7964 46.1009 12.4943C44.2779 11.1686 42.2538 10.1742 40.0284 9.51136C37.803 8.84848 35.483 8.51704 33.0682 8.51704C28.6648 8.51704 24.6757 9.62973 21.1009 11.8551C17.5497 14.0805 14.7206 17.3594 12.6136 21.6918C10.5303 26.0241 9.48864 31.339 9.48864 37.6364C9.48864 43.9337 10.5303 49.2486 12.6136 53.581C14.7206 57.9134 17.5497 61.1922 21.1009 63.4176C24.6757 65.643 28.6648 66.7557 33.0682 66.7557C35.483 66.7557 37.803 66.4242 40.0284 65.7614C42.2538 65.0985 44.2779 64.116 46.1009 62.8139C47.9474 61.4882 49.5099 59.8665 50.7884 57.9489C52.0904 56.0076 53.0019 53.7822 53.5227 51.2727H62.3295C61.6667 54.9896 60.4593 58.3158 58.7074 61.2514C56.9555 64.187 54.7775 66.6847 52.1733 68.7443C49.5691 70.7803 46.6454 72.331 43.402 73.3963C40.1823 74.4616 36.7377 74.9943 33.0682 74.9943C26.8655 74.9943 21.3494 73.4792 16.5199 70.4489C11.6903 67.4186 7.89063 63.1098 5.12074 57.5227C2.35085 51.9356 0.965909 45.3068 0.965909 37.6364C0.965909 29.9659 2.35085 23.3371 5.12074 17.75C7.89063 12.1629 11.6903 7.85417 16.5199 4.82386C21.3494 1.79356 26.8655 0.278406 33.0682 0.278406C36.7377 0.278406 40.1823 0.811077 43.402 1.87642C46.6454 2.94176 49.5691 4.50426 52.1733 6.56392C54.7775 8.5999 56.9555 11.0857 58.7074 14.0213C60.4593 16.9332 61.6667 20.2595 62.3295 24ZM137.924 37.6364C137.924 45.3068 136.539 51.9356 133.77 57.5227C131 63.1098 127.2 67.4186 122.37 70.4489C117.541 73.4792 112.025 74.9943 105.822 74.9943C99.6194 74.9943 94.1033 73.4792 89.2738 70.4489C84.4442 67.4186 80.6445 63.1098 77.8746 57.5227C75.1048 51.9356 73.7198 45.3068 73.7198 37.6364C73.7198 29.9659 75.1048 23.3371 77.8746 17.75C80.6445 12.1629 84.4442 7.85417 89.2738 4.82386C94.1033 1.79356 99.6194 0.278406 105.822 0.278406C112.025 0.278406 117.541 1.79356 122.37 4.82386C127.2 7.85417 131 12.1629 133.77 17.75C136.539 23.3371 137.924 29.9659 137.924 37.6364ZM129.402 37.6364C129.402 31.339 128.348 26.0241 126.241 21.6918C124.158 17.3594 121.329 14.0805 117.754 11.8551C114.203 9.62973 110.225 8.51704 105.822 8.51704C101.419 8.51704 97.4296 9.62973 93.8548 11.8551C90.3036 14.0805 87.4746 17.3594 85.3675 21.6918C83.2842 26.0241 82.2425 31.339 82.2425 37.6364C82.2425 43.9337 83.2842 49.2486 85.3675 53.581C87.4746 57.9134 90.3036 61.1922 93.8548 63.4176C97.4296 65.643 101.419 66.7557 105.822 66.7557C110.225 66.7557 114.203 65.643 117.754 63.4176C121.329 61.1922 124.158 57.9134 126.241 53.581C128.348 49.2486 129.402 43.9337 129.402 37.6364ZM152.733 1.27273H163.244L187.96 61.642H188.812L213.528 1.27273H224.039V74H215.801V18.7443H215.091L192.363 74H184.409L161.681 18.7443H160.971V74H152.733V1.27273ZM250.504 1.27273V74H241.697V1.27273H250.504ZM325.833 1.27273V74H317.31L277.679 16.8977H276.969V74H268.162V1.27273H276.685L316.458 58.517H317.168V1.27273H325.833ZM393.171 24C392.39 21.6089 391.36 19.4664 390.082 17.5724C388.827 15.6548 387.324 14.0213 385.572 12.6719C383.844 11.3224 381.879 10.2926 379.677 9.58238C377.475 8.87216 375.06 8.51704 372.433 8.51704C368.124 8.51704 364.206 9.62973 360.678 11.8551C357.151 14.0805 354.345 17.3594 352.262 21.6918C350.179 26.0241 349.137 31.339 349.137 37.6364C349.137 43.9337 350.191 49.2486 352.298 53.581C354.405 57.9134 357.257 61.1922 360.856 63.4176C364.454 65.643 368.503 66.7557 373.001 66.7557C377.167 66.7557 380.837 65.8679 384.009 64.0923C387.205 62.2931 389.691 59.7599 391.467 56.4929C393.266 53.2022 394.165 49.3314 394.165 44.8807L396.864 45.4489H374.989V37.6364H402.688V45.4489C402.688 51.4384 401.41 56.6468 398.853 61.0739C396.32 65.5009 392.816 68.9337 388.342 71.3722C383.891 73.7869 378.777 74.9943 373.001 74.9943C366.561 74.9943 360.903 73.4792 356.026 70.4489C351.173 67.4186 347.385 63.1098 344.663 57.5227C341.964 51.9356 340.614 45.3068 340.614 37.6364C340.614 31.8835 341.384 26.7107 342.923 22.1179C344.485 17.5014 346.687 13.5715 349.528 10.3281C352.369 7.08475 355.73 4.59896 359.613 2.87074C363.496 1.14252 367.769 0.278406 372.433 0.278406C376.268 0.278406 379.843 0.858425 383.157 2.01846C386.495 3.15483 389.466 4.77651 392.07 6.88352C394.698 8.96685 396.888 11.4645 398.64 14.3764C400.392 17.2647 401.599 20.4725 402.262 24H393.171Z" fill="#FFF5EA"/>
</svg>
