<svg width="66" height="126" viewBox="0 0 66 126" fill="none" xmlns="http://www.w3.org/2000/svg">
<path d="M13.7784 97.5682C12.0265 97.5682 10.5232 96.9408 9.26847 95.6861C8.01373 94.4313 7.38636 92.928 7.38636 91.1761C7.38636 89.4242 8.01373 87.9209 9.26847 86.6662C10.5232 85.4115 12.0265 84.7841 13.7784 84.7841C15.5303 84.7841 17.0336 85.4115 18.2884 86.6662C19.5431 87.9209 20.1705 89.4242 20.1705 91.1761C20.1705 92.3362 19.8745 93.4015 19.2827 94.3722C18.7145 95.3428 17.9451 96.1241 16.9744 96.7159C16.0275 97.2841 14.9621 97.5682 13.7784 97.5682ZM13.7784 57.0852C12.0265 57.0852 10.5232 56.4579 9.26847 55.2031C8.01373 53.9484 7.38636 52.4451 7.38636 50.6932C7.38636 48.9413 8.01373 47.438 9.26847 46.1832C10.5232 44.9285 12.0265 44.3011 13.7784 44.3011C15.5303 44.3011 17.0336 44.9285 18.2884 46.1832C19.5431 47.438 20.1705 48.9413 20.1705 50.6932C20.1705 51.8532 19.8745 52.9186 19.2827 53.8892C18.7145 54.8598 17.9451 55.6411 16.9744 56.233C16.0275 56.8011 14.9621 57.0852 13.7784 57.0852Z" fill="#CA8B04"/>
<path d="M54.5682 71.3182C54.5682 80.267 53.3963 88.5057 51.0526 96.0341C48.7325 103.539 45.4063 110.452 41.0739 116.773H33.6875C35.392 114.429 36.9782 111.541 38.446 108.108C39.9375 104.699 41.2396 100.958 42.3523 96.8864C43.465 92.7907 44.3291 88.5649 44.9446 84.2088C45.5838 79.8291 45.9034 75.5322 45.9034 71.3182C45.9034 65.6837 45.3589 59.9664 44.2699 54.1662C43.1809 48.366 41.7131 42.9801 39.8665 38.0085C38.0199 33.0369 35.9602 28.9886 33.6875 25.8636H41.0739C45.4063 32.1847 48.7325 39.1094 51.0526 46.6378C53.3963 54.1425 54.5682 62.3693 54.5682 71.3182Z" fill="#CA8B04"/>
</svg>
