<svg fill="#ca8b04" xmlns="http://www.w3.org/2000/svg"  viewBox="0 0 64 64" width="90px" height="90px"><path d="M 31.998047 1.0117188 C 31.738297 1.0117188 31.480469 1.1054688 31.292969 1.2929688 L 1.2929688 31.292969 C 0.90196875 31.683969 0.90196875 32.316031 1.2929688 32.707031 L 31.292969 62.707031 C 31.479969 62.895031 31.734 63 32 63 C 32.266 63 32.520031 62.895031 32.707031 62.707031 L 62.705078 32.707031 C 63.096078 32.316031 63.096078 31.683969 62.705078 31.292969 L 32.705078 1.2929688 C 32.517578 1.1054688 32.257797 1.0117188 31.998047 1.0117188 z M 32.177734 3.59375 L 60.585938 32 L 36.082031 56.503906 C 36.358547 55.441167 36.515625 54.340189 36.515625 53.212891 C 36.515625 50.076932 35.403456 47.115625 33.380859 44.761719 L 45.435547 32.707031 C 45.826547 32.316031 45.826547 31.683969 45.435547 31.292969 L 32.707031 18.564453 C 30.629031 16.486453 29.484375 13.725109 29.484375 10.787109 C 29.484375 8.1141002 30.441999 5.5928235 32.177734 3.59375 z M 27.919922 7.4921875 C 27.642701 8.5561926 27.484375 9.6583519 27.484375 10.787109 C 27.484375 13.923509 28.597955 16.884216 30.621094 19.238281 L 18.566406 31.292969 C 18.175406 31.683969 18.175406 32.316031 18.566406 32.707031 L 21.394531 35.535156 C 21.785531 35.926156 22.417594 35.926156 22.808594 35.535156 C 23.199594 35.145156 23.199594 34.512094 22.808594 34.121094 L 20.6875 32 L 32 20.685547 L 43.3125 32 L 32 43.3125 L 31.292969 42.605469 C 30.901969 42.214469 30.269906 42.214469 29.878906 42.605469 C 29.487906 42.995469 29.487906 43.628531 29.878906 44.019531 L 31.292969 45.435547 C 33.370969 47.513547 34.515625 50.274891 34.515625 53.212891 C 34.515625 55.886386 33.558603 58.408958 31.822266 60.408203 L 3.4140625 32 L 27.919922 7.4921875 z M 34.121094 9.0800781 C 33.865094 9.0800781 33.609063 9.1780469 33.414062 9.3730469 L 32 10.787109 C 31.61 11.177109 31.61 11.811172 32 12.201172 C 32.39 12.591172 33.024062 12.591172 33.414062 12.201172 L 34.828125 10.787109 C 35.219125 10.396109 35.219125 9.7630469 34.828125 9.3730469 C 34.633125 9.1780469 34.377094 9.0800781 34.121094 9.0800781 z M 37.65625 12.615234 C 37.40025 12.615234 37.144219 12.713203 36.949219 12.908203 L 35.535156 14.322266 C 35.145156 14.712266 35.145156 15.346328 35.535156 15.736328 C 35.925156 16.126328 36.559219 16.126328 36.949219 15.736328 L 38.363281 14.322266 C 38.753281 13.932266 38.753281 13.298203 38.363281 12.908203 C 38.168281 12.713203 37.91225 12.615234 37.65625 12.615234 z M 41.191406 16.152344 C 40.935406 16.152344 40.679375 16.248359 40.484375 16.443359 L 39.070312 17.857422 C 38.680312 18.247422 38.680312 18.881484 39.070312 19.271484 C 39.460313 19.661484 40.094375 19.661484 40.484375 19.271484 L 41.898438 17.857422 C 42.289437 17.467422 42.289437 16.833359 41.898438 16.443359 C 41.703437 16.248359 41.447406 16.152344 41.191406 16.152344 z M 44.728516 19.685547 C 44.472516 19.685547 44.216484 19.783516 44.021484 19.978516 L 42.607422 21.392578 C 42.217422 21.782578 42.217422 22.416641 42.607422 22.806641 C 42.997422 23.196641 43.631484 23.196641 44.021484 22.806641 L 45.435547 21.392578 C 45.825547 21.002578 45.825547 20.369516 45.435547 19.978516 C 45.240547 19.783516 44.984516 19.685547 44.728516 19.685547 z M 48.263672 23.222656 C 48.007672 23.222656 47.751641 23.320625 47.556641 23.515625 L 46.142578 24.929688 C 45.752578 25.319688 45.752578 25.95375 46.142578 26.34375 C 46.532578 26.73375 47.166641 26.73375 47.556641 26.34375 L 48.970703 24.929688 C 49.360703 24.539687 49.360703 23.905625 48.970703 23.515625 C 48.775703 23.320625 48.519672 23.222656 48.263672 23.222656 z M 51.798828 26.757812 C 51.542828 26.757812 51.286797 26.855781 51.091797 27.050781 L 49.677734 28.464844 C 49.287734 28.854844 49.287734 29.488906 49.677734 29.878906 C 50.067734 30.268906 50.701797 30.268906 51.091797 29.878906 L 52.505859 28.464844 C 52.895859 28.074844 52.895859 27.441781 52.505859 27.050781 C 52.310859 26.855781 52.054828 26.757812 51.798828 26.757812 z M 55.335938 30.292969 C 55.079938 30.292969 54.823906 30.390937 54.628906 30.585938 L 53.212891 32 C 52.822891 32.39 52.822891 33.024062 53.212891 33.414062 C 53.602891 33.804063 54.236953 33.804063 54.626953 33.414062 L 56.042969 32 C 56.432969 31.61 56.432969 30.975938 56.042969 30.585938 C 55.847969 30.390937 55.591937 30.292969 55.335938 30.292969 z M 24.929688 36.65625 C 24.673938 36.65625 24.418156 36.753719 24.222656 36.949219 C 23.831656 37.340219 23.831656 37.973281 24.222656 38.363281 L 27.050781 41.191406 C 27.245781 41.386406 27.501812 41.484375 27.757812 41.484375 C 28.013812 41.484375 28.269844 41.387406 28.464844 41.191406 C 28.855844 40.800406 28.855844 40.167344 28.464844 39.777344 L 25.636719 36.949219 C 25.441219 36.753719 25.185437 36.65625 24.929688 36.65625 z"/></svg>